<?xml version="1.0" encoding="UTF-8"?>
<svg width="800" height="400" viewBox="0 0 800 400" fill="none" xmlns="http://www.w3.org/2000/svg">
  <rect width="800" height="400" fill="#1E1E1E"/>
  <path d="M400 200C400 211.046 391.046 220 380 220C368.954 220 360 211.046 360 200C360 188.954 368.954 180 380 180C391.046 180 400 188.954 400 200Z" fill="#4A4A4A"/>
  <path d="M380 220C391.046 220 400 211.046 400 200C400 188.954 391.046 180 380 180C368.954 180 360 188.954 360 200C360 211.046 368.954 220 380 220ZM380 190C385.523 190 390 194.477 390 200C390 205.523 385.523 210 380 210C374.477 210 370 205.523 370 200C370 194.477 374.477 190 380 190Z" fill="#666666"/>
  <path d="M400 200H420M360 200H340M380 180V160M380 220V240" stroke="#666666" stroke-width="4"/>
</svg> 